<svg xmlns="http://www.w3.org/2000/svg" width="17.6" height="24" viewBox="0 0 17.6 24"><g transform="translate(-6.75 -3.375)"><path d="M22.15,10.125H16.265v9.7L18.9,17.278a.729.729,0,0,1,1.012.005.7.7,0,0,1-.006.992L16.056,22a.735.735,0,0,1-.5.2.694.694,0,0,1-.275-.054A.766.766,0,0,1,15.055,22h0l-3.85-3.72a.69.69,0,0,1-.005-.992.724.724,0,0,1,1.012-.005l2.635,2.544v-9.7H8.95a2.185,2.185,0,0,0-2.2,2.156V25.219a2.185,2.185,0,0,0,2.2,2.156h13.2a2.185,2.185,0,0,0,2.2-2.156V12.281A2.185,2.185,0,0,0,22.15,10.125Z" transform="translate(0)"/><path d="M18.914,4.289a.914.914,0,0,0-1.828,0v5.836h1.828Z" transform="translate(-2.45)"/></g></svg>