<svg xmlns="http://www.w3.org/2000/svg" width="19.765" height="24" viewBox="0 0 19.765 24"><g transform="translate(-4.5 -2.25)"><path d="M22.062,2.25H6.7A2.249,2.249,0,0,0,4.5,4.537V23.963A2.249,2.249,0,0,0,6.7,26.25h15.37a2.249,2.249,0,0,0,2.2-2.287V4.537A2.257,2.257,0,0,0,22.062,2.25Zm-.206,21.708H6.9a.211.211,0,0,1-.206-.214V4.751A.211.211,0,0,1,6.9,4.537H21.862a.211.211,0,0,1,.206.214v19A.218.218,0,0,1,21.857,23.958Z" transform="translate(0 0)"/><path d="M10.2,13.625V26.369a.126.126,0,0,0,.126.125H24.049a.126.126,0,0,0,.126-.125V13.625a.126.126,0,0,0-.126-.125H10.321A.126.126,0,0,0,10.2,13.625Z" transform="translate(-2.805 -3.372)"/><path d="M10.2,8.065v2.391a.133.133,0,0,0,.123.141H20.8a.133.133,0,0,0,.123-.141V8.065a.133.133,0,0,0-.123-.141H10.318A.133.133,0,0,0,10.2,8.065Z" transform="translate(-2.805 -1.477)"/></g></svg>